<svg width="44" height="39" viewBox="0 0 44 39" xmlns="http://www.w3.org/2000/svg"><defs><linearGradient x1="4.516%" y1="73.426%" x2="53.429%" y2="66.89%" id="a"><stop stop-color="#113EFF" offset="0%"/><stop stop-color="#1573F8" offset="100%"/></linearGradient></defs><g transform="translate(9.713 -57.462)" fill="url(#a)" fill-rule="evenodd"><path d="M12.242 66.687a7.268 7.268 0 10.006 14.536 7.268 7.268 0 00-.006-14.536zm4.382 11.689a6.222 6.222 0 11-8.777-8.823 6.222 6.222 0 018.777 8.823z"/><path d="M20.622 81.173l.22-.08a3.056 3.056 0 001.46-4.45 3.056 3.056 0 000-5.39 3.056 3.056 0 00-2.72-4.664 3.056 3.056 0 00-4.669-2.695 3.056 3.056 0 00-5.391 0 3.057 3.057 0 00-4.609 2.695 3.056 3.056 0 00-2.695 4.67 3.056 3.056 0 000 5.391h-.03a3.056 3.056 0 001.46 4.444l.22.08-2.622 4.785c-.459.832-.239 1.302.257 1.571.368.16.772.226 1.173.19l2.58-.062 1.338 2.225c.178.351.44.652.764.874.495.27 1.009.208 1.467-.611l2.549-4.64c.57.171 1.178.171 1.748 0l2.549 4.64c.458.831.972.899 1.467.611.317-.209.575-.495.752-.83l1.363-2.269 2.732.062c.349.023.698-.042 1.015-.19.495-.269.715-.74.256-1.571l-2.634-4.786zM10.414 85.03l-2.506 4.603c-.19.348-.122.244-.47-.336L5.977 86.85a.52.52 0 00-.477-.25l-2.86.067c-.612 0-.679.116-.49-.22l2.763-4.963a3.057 3.057 0 003.484 2.946 3.05 3.05 0 001.18-.422c.202.373.478.7.813.96l.08.061h-.056zm1.34-.488a2.022 2.022 0 01-1.468-1.468.52.52 0 00-.886-.226A2.023 2.023 0 016 80.874a.52.52 0 00-.648-.642 2.023 2.023 0 01-1.962-3.405.52.52 0 00-.238-.88 2.023 2.023 0 01-1.107-3.209l-.024-.03a2.02 2.02 0 011.106-.721.52.52 0 00.257-.893 2.023 2.023 0 011.974-3.392.52.52 0 00.642-.648 2.023 2.023 0 013.405-1.962.52.52 0 00.88-.239 2.023 2.023 0 013.924 0 .52.52 0 00.886.227 2.023 2.023 0 013.393 1.974.52.52 0 00.648.642 2.023 2.023 0 011.968 3.398.52.52 0 00.238.88 2.023 2.023 0 010 3.924.52.52 0 00-.226.887 2.023 2.023 0 01-1.974 3.392.52.52 0 00-.648.697 2.023 2.023 0 01-3.405 1.962.52.52 0 00-.88.238 2.023 2.023 0 01-2.456 1.468zm10.396 2.163l-3.179-.092a.52.52 0 00-.476.25l-1.492 2.489c-.311.525-.256.61-.44.275l-2.482-4.597.08-.061c.335-.26.611-.587.813-.96a3.056 3.056 0 004.609-2.524l2.732 4.975c.147.27.153.251-.165.245z"/></g></svg>